<svg width="24" height="25" viewBox="0 0 24 25" fill="none" xmlns="http://www.w3.org/2000/svg">
<path d="M12.22 2.51685H11.78C11.2496 2.51685 10.7409 2.72756 10.3658 3.10263C9.99072 3.4777 9.78 3.98641 9.78 4.51685V4.69685C9.77964 5.04757 9.68706 5.39204 9.51154 5.69568C9.33602 5.99933 9.08374 6.25148 8.78 6.42685L8.35 6.67685C8.04596 6.85238 7.70108 6.9448 7.35 6.9448C6.99893 6.9448 6.65404 6.85238 6.35 6.67685L6.2 6.59685C5.74107 6.33211 5.19584 6.26029 4.684 6.39715C4.17217 6.53402 3.73555 6.86838 3.47 7.32685L3.25 7.70685C2.98526 8.16578 2.91345 8.71101 3.05031 9.22284C3.18717 9.73468 3.52154 10.1713 3.98 10.4368L4.13 10.5368C4.43228 10.7114 4.68362 10.9619 4.85905 11.2637C5.03448 11.5654 5.1279 11.9078 5.13 12.2568V12.7668C5.1314 13.1193 5.03965 13.4658 4.86405 13.7714C4.68844 14.0769 4.43521 14.3306 4.13 14.5068L3.98 14.5968C3.52154 14.8624 3.18717 15.299 3.05031 15.8108C2.91345 16.3227 2.98526 16.8679 3.25 17.3268L3.47 17.7068C3.73555 18.1653 4.17217 18.4997 4.684 18.6365C5.19584 18.7734 5.74107 18.7016 6.2 18.4368L6.35 18.3568C6.65404 18.1813 6.99893 18.0889 7.35 18.0889C7.70108 18.0889 8.04596 18.1813 8.35 18.3568L8.78 18.6068C9.08374 18.7822 9.33602 19.0344 9.51154 19.338C9.68706 19.6417 9.77964 19.9861 9.78 20.3368V20.5168C9.78 21.0473 9.99072 21.556 10.3658 21.9311C10.7409 22.3061 11.2496 22.5168 11.78 22.5168H12.22C12.7504 22.5168 13.2591 22.3061 13.6342 21.9311C14.0093 21.556 14.22 21.0473 14.22 20.5168V20.3368C14.2204 19.9861 14.3129 19.6417 14.4885 19.338C14.664 19.0344 14.9163 18.7822 15.22 18.6068L15.65 18.3568C15.954 18.1813 16.2989 18.0889 16.65 18.0889C17.0011 18.0889 17.346 18.1813 17.65 18.3568L17.8 18.4368C18.2589 18.7016 18.8042 18.7734 19.316 18.6365C19.8278 18.4997 20.2645 18.1653 20.53 17.7068L20.75 17.3168C21.0147 16.8579 21.0866 16.3127 20.9497 15.8008C20.8128 15.289 20.4785 14.8524 20.02 14.5868L19.87 14.5068C19.5648 14.3306 19.3116 14.0769 19.136 13.7714C18.9604 13.4658 18.8686 13.1193 18.87 12.7668V12.2668C18.8686 11.9144 18.9604 11.5679 19.136 11.2623C19.3116 10.9568 19.5648 10.7031 19.87 10.5268L20.02 10.4368C20.4785 10.1713 20.8128 9.73468 20.9497 9.22284C21.0866 8.71101 21.0147 8.16578 20.75 7.70685L20.53 7.32685C20.2645 6.86838 19.8278 6.53402 19.316 6.39715C18.8042 6.26029 18.2589 6.33211 17.8 6.59685L17.65 6.67685C17.346 6.85238 17.0011 6.9448 16.65 6.9448C16.2989 6.9448 15.954 6.85238 15.65 6.67685L15.22 6.42685C14.9163 6.25148 14.664 5.99933 14.4885 5.69568C14.3129 5.39204 14.2204 5.04757 14.22 4.69685V4.51685C14.22 3.98641 14.0093 3.4777 13.6342 3.10263C13.2591 2.72756 12.7504 2.51685 12.22 2.51685Z" stroke="white" stroke-width="2"/>
<path d="M12 15.5168C13.6569 15.5168 15 14.1737 15 12.5168C15 10.86 13.6569 9.51685 12 9.51685C10.3431 9.51685 9 10.86 9 12.5168C9 14.1737 10.3431 15.5168 12 15.5168Z" stroke="white" stroke-width="2"/>
</svg>
