<svg width="60" height="60" viewBox="0 0 60 60" fill="none" xmlns="http://www.w3.org/2000/svg">
<path fill-rule="evenodd" clip-rule="evenodd" d="M5.22937 25.7011C5.11547 25.7011 5.08734 25.6439 5.14406 25.5591L5.74078 24.7917C5.79703 24.7064 5.93953 24.6497 6.05297 24.6497H16.1953C16.3092 24.6497 16.3373 24.735 16.2806 24.8203L15.7978 25.5591C15.7411 25.6439 15.5991 25.7292 15.5138 25.7292L5.22937 25.7011ZM0.939375 28.3144C0.825937 28.3144 0.797344 28.2581 0.854062 28.1723L1.45078 27.4055C1.5075 27.3202 1.64953 27.2634 1.76344 27.2634H14.7178C14.8313 27.2634 14.8884 27.3487 14.8598 27.4341L14.6325 28.1156C14.6044 28.2295 14.4905 28.2862 14.377 28.2862L0.939375 28.3144ZM7.81406 30.9281C7.70062 30.9281 7.6725 30.8428 7.72922 30.7575L8.12672 30.0473C8.18391 29.962 8.29734 29.8772 8.41125 29.8772H14.0925C14.2064 29.8772 14.2631 29.962 14.2631 30.0759L14.2069 30.7575C14.2069 30.8714 14.093 30.9567 14.0077 30.9567L7.81406 30.9281ZM37.3031 25.1897C35.513 25.6444 34.2914 25.9852 32.5303 26.4394C32.1038 26.5533 32.0756 26.5814 31.7063 26.1553C31.2802 25.6725 30.9675 25.3598 30.3712 25.0758C28.5811 24.1955 26.8481 24.4509 25.2291 25.5023C23.2973 26.752 22.3031 28.5984 22.3312 30.8995C22.3594 33.1725 23.9222 35.0475 26.1666 35.3602C28.0983 35.6156 29.7178 34.9336 30.9961 33.4852C31.2516 33.1725 31.4789 32.8317 31.763 32.4337H26.28C25.6837 32.4337 25.5417 32.0644 25.7405 31.5816C26.1098 30.7008 26.7914 29.2237 27.1889 28.485C27.2747 28.3144 27.4734 28.0303 27.8995 28.0303H38.2402C38.1839 28.7977 38.1839 29.5645 38.07 30.3319C37.7573 32.377 36.9905 34.252 35.7403 35.8997C33.6947 38.5987 31.0247 40.2745 27.6436 40.7292C24.8597 41.0986 22.2745 40.5586 20.002 38.8542C17.8997 37.2633 16.7067 35.1609 16.3941 32.5477C16.0247 29.4511 16.9336 26.6667 18.8086 24.2236C20.8256 21.5817 23.4961 19.9055 26.7633 19.3088C29.4338 18.8259 31.9903 19.1386 34.2914 20.7009C35.797 21.6952 36.8766 23.0587 37.5867 24.7064C37.7573 24.9623 37.6439 25.1044 37.3027 25.1892L37.3031 25.1897Z" fill="#00ACD7"/>
<path d="M46.7063 40.8998C44.1211 40.8427 41.7628 40.1044 39.7744 38.3995C38.0981 36.9511 37.0472 35.1042 36.7064 32.9166C36.195 29.7066 37.0753 26.8655 39.0075 24.3375C41.0813 21.6098 43.5811 20.1895 46.9622 19.5928C49.8595 19.0819 52.5872 19.3659 55.0584 21.0417C57.3028 22.5759 58.6945 24.6497 59.0639 27.3769C59.5467 31.2122 58.4391 34.3373 55.7967 37.0078C53.9217 38.9109 51.6206 40.1044 48.9788 40.6439C48.2119 40.7859 47.4445 40.8145 46.7063 40.8998ZM53.4675 29.4225C53.4394 29.0531 53.4394 28.7691 53.3822 28.485C52.8713 25.6725 50.2856 24.0816 47.587 24.7069C44.9447 25.3031 43.2403 26.9794 42.6155 29.6498C42.1041 31.8656 43.1836 34.11 45.2288 35.0189C46.7916 35.7009 48.3539 35.6156 49.8595 34.8488C52.1039 33.6839 53.3255 31.8656 53.4675 29.4225Z" fill="#00ACD7"/>
</svg>
