<svg width="60" height="60" viewBox="0 0 60 60" fill="none" xmlns="http://www.w3.org/2000/svg">
<path d="M0 30C0 38.7155 13.4316 45.7814 30 45.7814C46.5684 45.7814 60 38.7155 60 30C60 21.2845 46.568 14.2186 30 14.2186C13.4316 14.2186 0 21.2845 0 30Z" fill="url(#paint0_radial_13_243)"/>
<path d="M30 44.6095C45.9211 44.6095 58.8281 38.0681 58.8281 30C58.8281 21.9309 45.9211 15.3905 30 15.3905C14.0789 15.3905 1.17188 21.9309 1.17188 30C1.17188 38.0681 14.0789 44.6095 30 44.6095Z" fill="#777BB3"/>
<path d="M16.2994 31.8113C17.6086 31.8113 18.5855 31.5698 19.2038 31.0941C19.8159 30.6225 20.2383 29.8064 20.46 28.6683C20.6663 27.6042 20.5875 26.8617 20.2256 26.4605C19.8563 26.0508 19.057 25.8431 17.8505 25.8431H15.758L14.5988 31.8113H16.2994ZM9.4561 39.1627C9.40809 39.1626 9.36069 39.1519 9.3173 39.1314C9.27391 39.1108 9.23561 39.0809 9.20514 39.0438C9.17467 39.0067 9.15279 38.9633 9.14107 38.9168C9.12935 38.8702 9.12808 38.8216 9.13735 38.7745L12.2109 22.9598C12.2255 22.8859 12.2652 22.8193 12.3233 22.7714C12.3814 22.7234 12.4543 22.6971 12.5297 22.6969H19.155C21.2372 22.6969 22.7869 23.2622 23.7614 24.3773C24.7402 25.4977 25.043 27.0652 24.66 29.0344C24.5039 29.8364 24.2358 30.5813 23.8631 31.2488C23.4752 31.9353 22.9802 32.5556 22.3969 33.0863C21.6792 33.7575 20.8669 34.245 19.9842 34.5314C19.1161 34.8145 18.0005 34.958 16.6702 34.958H13.987L13.2211 38.8992C13.2066 38.9734 13.1668 39.0402 13.1085 39.0883C13.0502 39.1364 12.977 39.1626 12.9014 39.1627H9.4561Z" fill="black"/>
<path d="M16.0266 26.1684H17.8505C19.3069 26.1684 19.8127 26.4881 19.9847 26.6789C20.2692 26.9948 20.3236 27.6619 20.1398 28.6064C19.9341 29.6644 19.5525 30.4148 19.0055 30.8358C18.4458 31.267 17.5345 31.4855 16.2994 31.4855H14.9934L16.027 26.1689L16.0266 26.1684ZM19.155 22.3716H12.5302C12.3791 22.3716 12.2327 22.4241 12.1161 22.5201C11.9994 22.6161 11.9198 22.7497 11.8908 22.898L8.81719 38.7131C8.79904 38.8073 8.80191 38.9044 8.82561 38.9973C8.84931 39.0903 8.89324 39.1769 8.95428 39.2509C9.01531 39.3249 9.09194 39.3846 9.17868 39.4255C9.26543 39.4665 9.36016 39.4878 9.4561 39.488H12.9014C13.0525 39.4878 13.1988 39.4352 13.3153 39.3391C13.4319 39.243 13.5114 39.1094 13.5403 38.9611L14.2552 35.2833H16.6697C18.0347 35.2833 19.1841 35.1342 20.0855 34.8408C21.0122 34.5398 21.8648 34.0294 22.6195 33.3234C23.2272 32.77 23.7429 32.1233 24.1472 31.4077C24.5367 30.7106 24.817 29.9325 24.9792 29.0963C25.3823 27.023 25.0547 25.3631 24.0061 24.1631C22.9673 22.9739 21.3352 22.3711 19.155 22.3711V22.3716ZM14.2036 32.1361H16.2994C17.6883 32.1361 18.7228 31.875 19.4025 31.3509C20.0827 30.8278 20.5406 29.9541 20.7797 28.7302C21.007 27.5545 20.9034 26.7253 20.468 26.242C20.0316 25.7592 19.1597 25.5173 17.8505 25.5173H15.4898L14.2036 32.1361ZM19.1555 23.0213C21.1486 23.0213 22.6022 23.5448 23.5163 24.5906C24.4303 25.6369 24.705 27.097 24.3413 28.9716C24.1903 29.7441 23.9367 30.45 23.5795 31.0894C23.2214 31.7297 22.7545 32.3147 22.1775 32.8458C21.4894 33.4894 20.7258 33.9483 19.8844 34.2216C19.0434 34.4953 17.9719 34.6317 16.6702 34.6317H13.7189L12.9019 38.8364H9.45656L12.5306 23.0213H19.1555Z" fill="white"/>
<path d="M32.5589 34.958C32.5109 34.958 32.4634 34.9474 32.4199 34.927C32.3765 34.9065 32.3381 34.8767 32.3075 34.8396C32.277 34.8026 32.255 34.7592 32.2432 34.7126C32.2314 34.6661 32.23 34.6175 32.2392 34.5703L33.5986 27.5728C33.7284 26.9072 33.6966 26.43 33.5095 26.2275C33.3947 26.1042 33.0506 25.8975 32.033 25.8975H29.5692L27.8602 34.695C27.8455 34.7691 27.8055 34.8358 27.7471 34.8836C27.6887 34.9315 27.6155 34.9576 27.54 34.9575H24.1228C24.0748 34.9575 24.0274 34.947 23.9839 34.9265C23.9405 34.9061 23.9021 34.8763 23.8715 34.8393C23.8409 34.8023 23.8189 34.759 23.807 34.7125C23.7951 34.666 23.7936 34.6175 23.8027 34.5703L26.8767 18.7552C26.8913 18.6811 26.9311 18.6143 26.9894 18.5664C27.0477 18.5184 27.1209 18.4922 27.1964 18.4922H30.6136C30.6616 18.4922 30.709 18.5027 30.7525 18.5232C30.7959 18.5436 30.8343 18.5734 30.8649 18.6104C30.8955 18.6474 30.9175 18.6907 30.9294 18.7372C30.9413 18.7837 30.9428 18.8322 30.9337 18.8794L30.1922 22.6969H32.842C34.8609 22.6969 36.2297 23.0522 37.027 23.7848C37.8394 24.5316 38.0934 25.7255 37.7808 27.3347L36.3506 34.695C36.336 34.769 36.2961 34.8356 36.2378 34.8835C36.1795 34.9314 36.1064 34.9575 36.0309 34.9575H32.5589V34.958Z" fill="black"/>
<path d="M30.614 18.1664H27.1964C27.0452 18.1664 26.8988 18.219 26.7822 18.3151C26.6655 18.4113 26.5859 18.5449 26.557 18.6933L23.4834 34.508C23.4652 34.6022 23.468 34.6993 23.4917 34.7923C23.5153 34.8854 23.5592 34.972 23.6203 35.0461C23.6813 35.1202 23.758 35.1798 23.8448 35.2208C23.9316 35.2618 24.0263 35.2832 24.1223 35.2833H27.54C27.6911 35.2832 27.8376 35.2307 27.9542 35.1346C28.0708 35.0384 28.1504 34.9048 28.1794 34.7564L29.8373 26.2228H32.032C33.0483 26.2228 33.262 26.4398 33.27 26.4497C33.3319 26.5153 33.413 26.8223 33.2789 27.5109L31.9195 34.508C31.9013 34.6022 31.9041 34.6994 31.9278 34.7924C31.9515 34.8855 31.9954 34.9722 32.0565 35.0463C32.1176 35.1203 32.1943 35.18 32.2812 35.221C32.368 35.262 32.4629 35.2832 32.5589 35.2833H36.0314C36.1824 35.2831 36.3288 35.2305 36.4453 35.1344C36.5619 35.0383 36.6414 34.9047 36.6703 34.7564L38.1004 27.397C38.4356 25.6692 38.1487 24.3736 37.2473 23.5453C36.3867 22.755 34.9458 22.3711 32.842 22.3711H30.5873L31.2534 18.9422C31.2717 18.8479 31.269 18.7507 31.2453 18.6576C31.2217 18.5644 31.1777 18.4777 31.1166 18.4036C31.0555 18.3294 30.9788 18.2697 30.8919 18.2287C30.805 18.1877 30.7101 18.1664 30.614 18.1664ZM30.614 18.818L29.797 23.0217H32.842C34.7578 23.0217 36.0797 23.3564 36.8062 24.0248C37.5342 24.6933 37.7517 25.7756 37.4615 27.2733L36.0309 34.6322H32.5589L33.9187 27.6347C34.0734 26.8387 34.0162 26.2959 33.7476 26.0062C33.479 25.717 32.9072 25.5722 32.0329 25.5722H29.3006L27.54 34.6317H24.1219L27.1959 18.8166H30.614V18.818Z" fill="white"/>
<path d="M43.1887 31.8113C44.498 31.8113 45.4753 31.5698 46.0941 31.0941C46.7053 30.6225 47.1281 29.8064 47.3498 28.6683C47.5561 27.6042 47.4778 26.8617 47.1155 26.4605C46.7461 26.0508 45.9469 25.8431 44.7403 25.8431H42.6483L41.4881 31.8113H43.1887ZM36.3469 39.1627C36.2988 39.1627 36.2513 39.1521 36.2078 39.1317C36.1643 39.1112 36.1258 39.0813 36.0953 39.0442C36.0647 39.0071 36.0427 38.9636 36.031 38.917C36.0192 38.8704 36.0179 38.8217 36.0272 38.7745L39.1008 22.9598C39.1153 22.8858 39.1552 22.819 39.2135 22.7711C39.2718 22.7231 39.345 22.6969 39.4205 22.6969H46.0453C48.1275 22.6969 49.6772 23.2622 50.6512 24.3773C51.6305 25.4977 51.9328 27.0652 51.5498 29.0344C51.4035 29.8101 51.1346 30.5575 50.7534 31.2488C50.3654 31.9352 49.8704 32.5555 49.2872 33.0863C48.57 33.7575 47.7567 34.245 46.8745 34.5314C46.0064 34.8145 44.8908 34.958 43.56 34.958H40.8773L40.1119 38.8992C40.0974 38.9735 40.0575 39.0404 39.9991 39.0884C39.9407 39.1365 39.8674 39.1627 39.7917 39.1627H36.3469Z" fill="black"/>
<path d="M42.9164 26.1684H44.7403C46.1967 26.1684 46.7025 26.4881 46.8741 26.6789C47.16 26.9948 47.2134 27.6619 47.0301 28.6064C46.8239 29.6644 46.4423 30.4148 45.8953 30.8358C45.3351 31.267 44.4239 31.4855 43.1892 31.4855H41.8833L42.9164 26.1684ZM46.0448 22.3716H39.42C39.269 22.3717 39.1227 22.4242 39.0062 22.5203C38.8897 22.6163 38.8101 22.7498 38.7811 22.898L35.707 38.7131C35.6889 38.8074 35.6917 38.9045 35.7155 38.9975C35.7392 39.0905 35.7832 39.1771 35.8443 39.2511C35.9053 39.3251 35.982 39.3847 36.0688 39.4257C36.1556 39.4666 36.2504 39.4879 36.3464 39.488H39.7917C39.9428 39.4878 40.0891 39.4352 40.2056 39.3391C40.3222 39.243 40.4017 39.1094 40.4306 38.9611L41.1455 35.2833H43.5595C44.9241 35.2833 46.0739 35.1342 46.9748 34.8408C47.902 34.5398 48.7547 34.0294 49.5098 33.323C50.1173 32.7696 50.6328 32.1231 51.037 31.4077C51.427 30.7106 51.7064 29.9325 51.8691 29.0963C52.2722 27.023 51.945 25.3631 50.8959 24.1631C49.8572 22.9739 48.2255 22.3711 46.0444 22.3711L46.0448 22.3716ZM41.0934 32.1361H43.1887C44.5781 32.1361 45.6122 31.875 46.2928 31.3509C46.9725 30.8278 47.4309 29.9541 47.6691 28.7302C47.8973 27.5545 47.7937 26.7253 47.3573 26.242C46.9214 25.7592 46.0491 25.5173 44.7403 25.5173H42.3801L41.0934 32.1361ZM46.0448 23.0213C48.0375 23.0213 49.492 23.5448 50.4056 24.5906C51.3197 25.6369 51.5948 27.097 51.2301 28.9716C51.0801 29.7441 50.8261 30.45 50.4689 31.0894C50.1112 31.7297 49.6439 32.3147 49.0664 32.8458C48.3787 33.4894 47.6147 33.9483 46.7733 34.2216C45.9328 34.4953 44.8617 34.6317 43.5595 34.6317H40.6087L39.7908 38.8364H36.3455L39.4195 23.0213H46.0448Z" fill="white"/>
<defs>
<radialGradient id="paint0_radial_13_243" cx="0" cy="0" r="1" gradientUnits="userSpaceOnUse" gradientTransform="translate(18.0122 19.7667) scale(39.3944)">
<stop stop-color="#AEB2D5"/>
<stop offset="0.3" stop-color="#AEB2D5"/>
<stop offset="0.75" stop-color="#484C89"/>
<stop offset="1" stop-color="#484C89"/>
</radialGradient>
</defs>
</svg>
