<svg width="60" height="70" viewBox="0 0 60 70" fill="none" xmlns="http://www.w3.org/2000/svg">
<path d="M29.7145 6.69812C27.7355 6.70906 25.8464 6.90539 24.1833 7.24883C19.2848 8.25836 18.3961 10.3715 18.3961 14.2691V19.4157H29.9709V21.1312H14.0517C10.688 21.1312 7.74235 23.4899 6.82078 27.9787C5.75766 33.122 5.71078 36.3322 6.82078 41.703C7.64344 45.7012 9.60844 48.5494 12.9727 48.5494H16.9528V42.3795C16.9528 37.922 20.258 33.9905 24.1838 33.9905H35.7455C38.9639 33.9905 41.5327 30.8984 41.5327 27.1283V14.2696C41.5327 10.6094 38.8861 7.86023 35.7455 7.24937C33.7561 6.86328 31.6931 6.68773 29.7145 6.69812ZM23.4548 10.8374C24.6502 10.8374 25.627 11.9952 25.627 13.4192C25.627 14.8373 24.6506 15.9841 23.4548 15.9841C22.2548 15.9841 21.2831 14.8373 21.2831 13.4192C21.2827 11.9952 22.2548 10.8374 23.4548 10.8374Z" fill="url(#paint0_linear_13_239)"/>
<path d="M42.9759 21.1312V27.1283C42.9759 31.7767 39.5972 35.6896 35.745 35.6896H24.1833C21.0164 35.6896 18.3961 38.8522 18.3961 42.5523V55.4121C18.3961 59.0713 21.1233 61.2243 24.1833 62.2737C27.847 63.5299 31.3608 63.7574 35.745 62.2737C38.6587 61.2888 41.5322 59.308 41.5322 55.4121V50.2649H29.9709V48.5488H47.3203C50.6841 48.5488 51.9384 45.8117 53.1084 41.7025C54.3169 37.4724 54.2648 33.4042 53.1084 27.9781C52.2769 24.0707 50.6892 21.1307 47.3203 21.1307L42.9759 21.1312ZM36.473 53.696C37.6734 53.696 38.6452 54.8428 38.6452 56.262C38.6452 57.6849 37.673 58.8427 36.473 58.8427C35.2776 58.8427 34.3012 57.6849 34.3012 56.262C34.3012 54.8428 35.2776 53.696 36.473 53.696Z" fill="url(#paint1_linear_13_239)"/>
<path opacity="0.444" d="M45.6136 65.4046C45.6136 67.3422 38.6686 68.9134 30.1022 68.9134C21.5353 68.9134 14.5903 67.3422 14.5903 65.4046C14.5903 63.4665 21.5348 61.8953 30.1022 61.8953C38.6686 61.8953 45.6136 63.4659 45.6136 65.4046Z" fill="url(#paint2_radial_13_239)"/>
<defs>
<linearGradient id="paint0_linear_13_239" x1="4.84541" y1="8.30738" x2="34.8998" y2="30.2761" gradientUnits="userSpaceOnUse">
<stop stop-color="#5A9FD4"/>
<stop offset="1" stop-color="#306998"/>
</linearGradient>
<linearGradient id="paint1_linear_13_239" x1="41.587" y1="51.3802" x2="29.9698" y2="37.4163" gradientUnits="userSpaceOnUse">
<stop stop-color="#FFD43B"/>
<stop offset="1" stop-color="#FFE873"/>
</linearGradient>
<radialGradient id="paint2_radial_13_239" cx="0" cy="0" r="1" gradientUnits="userSpaceOnUse" gradientTransform="translate(30.0395 65.3041) rotate(-90) scale(3.51002 13.2252)">
<stop stop-color="#B8B8B8" stop-opacity="0.498"/>
<stop offset="1" stop-color="#7F7F7F" stop-opacity="0"/>
</radialGradient>
</defs>
</svg>
